<svg id="Camada_1" data-name="Camada 1" xmlns="http://www.w3.org/2000/svg" viewBox="0 0 449.92 149.14"><defs><style>.cls-1{fill:#2d4c9c;}.cls-2{fill:#1d1d1b;}</style></defs><path class="cls-1" d="M185.17,25.06h11.49V45.51l16.69-20.45H227.8L207.71,49.77l21.53,25.86H214.79L196.66,53.89V75.63H185.17Z"/><path class="cls-1" d="M244.63,25.06v40h24.42V75.63h-35.9V25.06Z"/><path class="cls-1" d="M271.08,50.35a25.26,25.26,0,0,1,7.59-18.71,27.57,27.57,0,0,1,37.85,0,25.05,25.05,0,0,1,7.66,18.71,25.07,25.07,0,0,1-7.66,18.71,27.6,27.6,0,0,1-37.85,0A25.27,25.27,0,0,1,271.08,50.35Zm37,10.91a15.17,15.17,0,0,0,4.19-10.91,14.86,14.86,0,0,0-4.19-10.84,14.56,14.56,0,0,0-20.88,0A14.86,14.86,0,0,0,283,50.35a15.17,15.17,0,0,0,4.19,10.91,14.75,14.75,0,0,0,20.88,0Z"/><path class="cls-1" d="M369.84,28.1a24.54,24.54,0,0,1,9.61,10.54l-11.12,4.12A14.38,14.38,0,0,0,355.4,35.1,13.79,13.79,0,0,0,345,39.51a14.9,14.9,0,0,0-4.19,10.84A15.22,15.22,0,0,0,345,61.26a14,14,0,0,0,10.41,4.33,14.36,14.36,0,0,0,12.93-7.66l11.12,4.12a25.08,25.08,0,0,1-9.61,10.62,27.23,27.23,0,0,1-14.44,3.9,25.89,25.89,0,0,1-18.93-7.51,25.27,25.27,0,0,1-7.59-18.71,25.26,25.26,0,0,1,7.59-18.71,25.86,25.86,0,0,1,18.93-7.52A26.42,26.42,0,0,1,369.84,28.1Z"/><path class="cls-1" d="M384.73,25.06h11.49V45.51l16.69-20.45h14.45L407.27,49.77,428.8,75.63H414.35L396.22,53.89V75.63H384.73Z"/><path class="cls-2" d="M207.08,90.14v1.42H196.57v23.51h-1.5V91.56h-10.5V90.14Z"/><path class="cls-2" d="M229.16,90.14v1.42h-16v10.15h14.31v1.43H213.17v10.5h16.17v1.43H211.67V90.14Z"/><path class="cls-2" d="M236.36,93.52a13,13,0,0,1,19.9,2.28l-1.39.57a11,11,0,0,0-9.43-5,10.76,10.76,0,0,0-8,3.24,10.87,10.87,0,0,0-3.21,8,11,11,0,0,0,3.21,8.05,10.85,10.85,0,0,0,8,3.21,11,11,0,0,0,9.43-5l1.39.57a13,13,0,0,1-19.9,2.28,12.43,12.43,0,0,1-3.64-9.09A12.29,12.29,0,0,1,236.36,93.52Z"/><path class="cls-2" d="M262.07,115.07V90.14h1.25l17.91,22.26V90.14h1.46v24.93h-1.24L263.53,92.78v22.29Z"/><path class="cls-2" d="M292.17,93.52a12.72,12.72,0,1,1,0,18.17,12.46,12.46,0,0,1-3.63-9.09A12.32,12.32,0,0,1,292.17,93.52Zm-2.1,9.08a11,11,0,0,0,3.2,8.05,11.52,11.52,0,0,0,16,0,11,11,0,0,0,3.2-8.05,11.18,11.18,0,1,0-22.36,0Z"/><path class="cls-2" d="M321.3,90.14v23.5h14.5v1.43h-16V90.14Z"/><path class="cls-2" d="M340.82,93.52a13.13,13.13,0,0,1,18.13,0,12.2,12.2,0,0,1,3.67,9.08,12.72,12.72,0,1,1-21.8-9.08Zm-2.1,9.08a11,11,0,0,0,3.21,8.05,11.51,11.51,0,0,0,15.95,0,11,11,0,0,0,3.21-8.05,10.87,10.87,0,0,0-3.21-8,11.43,11.43,0,0,0-15.95,0A10.87,10.87,0,0,0,338.72,102.6Z"/><path class="cls-2" d="M370.89,93.52a12.63,12.63,0,0,1,9.22-3.63,12.5,12.5,0,0,1,11,5.91l-1.39.57A11.76,11.76,0,0,0,372,94.59a10.78,10.78,0,0,0-3.24,8,11.12,11.12,0,0,0,3.17,8.05,10.58,10.58,0,0,0,7.84,3.21,10.83,10.83,0,0,0,7.55-2.85,10.55,10.55,0,0,0,3.49-7.19H378.51v-1.43h13.92a12.77,12.77,0,0,1-3.6,9.26,13,13,0,0,1-18.05,0,12.55,12.55,0,0,1-3.6-9.09A12.24,12.24,0,0,1,370.89,93.52Z"/><path class="cls-2" d="M398.28,115.07V90.14h1.49v24.93Z"/><path class="cls-2" d="M404.26,115.07l11.25-24.93h1.11l11.25,24.93h-1.6l-3-6.55H408.82l-3,6.55Zm11.79-22.69-6.59,14.71h13.21Z"/><path class="cls-1" d="M85.06,142.42a1.14,1.14,0,0,1-.56-.14C82,141,24.2,109.76,24.2,66.37V10.7A5.67,5.67,0,0,1,29.86,5H142.51a5.67,5.67,0,0,1,5.66,5.67v55c0,19.43-10.85,38.85-31.38,56.15a159,159,0,0,1-31.22,20.43A1.12,1.12,0,0,1,85.06,142.42Zm-55.2-135A3.27,3.27,0,0,0,26.6,10.7V66.37c0,39.79,52.61,70.22,58.5,73.5,6.07-3,60.67-31.13,60.67-74.14v-55a3.27,3.27,0,0,0-3.26-3.26Z"/><path class="cls-1" d="M134.8,13.58H37.57a4.86,4.86,0,0,0-4.86,4.86v48c0,33.16,40,58.62,50.16,64.55a4.91,4.91,0,0,0,4.73.11c10.51-5.48,52.06-29.39,52.06-65.21V18.44A4.86,4.86,0,0,0,134.8,13.58ZM84.36,50.8l1.23-1,1.27,1a4.52,4.52,0,0,1,1.84,3.47L86.29,66.48h-.15L82.68,54.34A4.51,4.51,0,0,1,84.36,50.8ZM82.53,71.08A1.37,1.37,0,0,1,81.38,70l0-.95a1.29,1.29,0,0,1,1.07-1.11l7.12-.17a1.42,1.42,0,0,1,1.15,1.11l0,.9a1.37,1.37,0,0,1-1.09,1.15Zm3.76,1.66,2.11,5.59a5.57,5.57,0,0,1-.87,5.57l0,0-.72.82a.65.65,0,0,1-1,0L85.06,84l0,0a4.71,4.71,0,0,1-1-4.73l2.15-6.48ZM66.17,49h-8a2.94,2.94,0,1,1-4.86,0h-8V43.34H66.17Zm0-9.7H45.29v-3a13.69,13.69,0,0,1,7.16-12l3.28-1.77L59,24.23a13.69,13.69,0,0,1,7.16,12ZM67,58.87a4.72,4.72,0,0,1,3.85-3.39c3.09-.38,10.14.69,13.58,11.05,0,0-3.52-4.78-6.51-4.6s-6.67,1.8-7.64,0a8.3,8.3,0,0,1-1-3.39S69.33,57.47,67,58.87Zm5.93,23.37c-2.12-.53-3.75-2.2-2.61-3.46,4.82-.42,6.31-1.46,6.31-1.46s-3.43-3.28-2.47-3c2.64,1.58,4.4,2,6.29,1.5s4.32-3.42,4.32-3.42a12.48,12.48,0,0,1-.26,1.46C81.4,83.14,74.53,82.65,72.91,82.24Zm23.71,36.27h-8a2.89,2.89,0,0,1,.5,1.64,2.94,2.94,0,1,1-5.87,0,2.89,2.89,0,0,1,.5-1.64h-8v-5.65H96.62Zm0-9.7H75.75v-3a13.69,13.69,0,0,1,7.16-12L86.19,92l3.27,1.77a13.69,13.69,0,0,1,7.16,12Zm3-28.37c.55,1,2.55,1.54,2.55,1.54-12.64,2.66-14.24-9.67-14.24-9.67A8.46,8.46,0,0,0,95,77.15c3.5-.16,3.83-1.13,7.06-3.34.27,1.49.31,3.17-3.18,4.55,2.13.43,2.13.34,5.2.11A4.67,4.67,0,0,1,99.62,80.44Zm4.76-20.88c-1.67-.58-4.17-1.35-4.88-.92,3.44,1.76,3.34,1.94,3.46,2.89s-.23.78-.58.86c-2.3-1-6-3.68-14.58,4.06,0,0,2.43-6.77,8.15-9.69s10.48,2,10.48,2S106,60.14,104.38,59.56ZM127.08,49h-8a2.94,2.94,0,1,1-4.86,0h-8V43.34h20.88Zm0-9.7H106.2v-3a13.69,13.69,0,0,1,7.16-12l3.28-1.77,3.28,1.77a13.69,13.69,0,0,1,7.16,12Z"/></svg>