<svg id="Camada_1" data-name="Camada 1" xmlns="http://www.w3.org/2000/svg" viewBox="0 0 195.46 217.29"><defs><style>.cls-1{fill:#2d4c9c;}</style></defs><path class="cls-1" d="M94.2,210a1.76,1.76,0,0,1-.83-.21A256,256,0,0,1,49,178.15C19.73,152.06,4.28,124.21,4.28,97.62V15.37A8.39,8.39,0,0,1,12.65,7H179.07a8.39,8.39,0,0,1,8.37,8.37V96.68c0,28.7-16,57.38-46.36,82.95A235.73,235.73,0,0,1,95,209.81,1.83,1.83,0,0,1,94.2,210ZM12.65,10.56a4.82,4.82,0,0,0-4.81,4.81V97.62c0,58.79,77.72,103.74,86.42,108.58a234.22,234.22,0,0,0,44.59-29.35c20.54-17.33,45-45.3,45-80.17V15.37a4.82,4.82,0,0,0-4.81-4.81Z"/><path class="cls-1" d="M167.68,19.63H24a7.18,7.18,0,0,0-7.18,7.18v71c0,49,59.1,86.59,74.11,95.35a7.2,7.2,0,0,0,7,.16c15.54-8.09,76.92-43.41,76.92-96.34V26.81A7.18,7.18,0,0,0,167.68,19.63Zm-74.52,55L95,73.07l1.88,1.46a6.67,6.67,0,0,1,2.72,5.12L96,97.79H95.8L90.68,79.85A6.68,6.68,0,0,1,93.16,74.62Zm-2.7,30a2,2,0,0,1-1.7-1.61l0-1.41a1.92,1.92,0,0,1,1.58-1.64l10.52-.24a2.09,2.09,0,0,1,1.7,1.63l0,1.34a2,2,0,0,1-1.61,1.69ZM96,107l3.11,8.26a8.19,8.19,0,0,1-1.29,8.22l0,0-1.06,1.21a1,1,0,0,1-1.42,0l-1.12-1.16,0,0a7,7,0,0,1-1.42-7L95.92,107ZM66.29,71.94H54.46a4.34,4.34,0,1,1-7.19,0H35.45V63.6H66.29Zm0-14.32H35.45V53.13A20.2,20.2,0,0,1,46,35.37l4.84-2.62,4.84,2.62A20.2,20.2,0,0,1,66.29,53.13Zm1.2,28.92a7,7,0,0,1,5.69-5c4.56-.57,15,1,20.06,16.32,0,0-5.2-7-9.62-6.8s-9.86,2.67-11.29,0a12.38,12.38,0,0,1-1.49-5S71,84.48,67.49,86.54Zm8.77,34.53c-3.15-.79-5.55-3.25-3.87-5.12,7.13-.62,9.33-2.16,9.33-2.16s-5.07-4.84-3.66-4.44c3.91,2.34,6.51,2.92,9.3,2.21s6.38-5,6.38-5a20,20,0,0,1-.38,2.16C88.79,122.39,78.64,121.67,76.26,121.07Zm35,53.57H99.46a4.35,4.35,0,1,1-7.19,0H80.44V166.3h30.84Zm0-14.32H80.44v-4.49A20.2,20.2,0,0,1,91,138.07l4.84-2.62,4.84,2.62a20.2,20.2,0,0,1,10.58,17.76Zm4.42-41.92c.82,1.52,3.78,2.28,3.78,2.28-18.67,3.93-21-14.28-21-14.28a12.49,12.49,0,0,0,10.49,7.14c5.17-.23,5.65-1.66,10.43-4.93.4,2.21.46,4.68-4.7,6.72,3.15.63,3.14.51,7.69.17C120.26,118.33,117.87,118.49,115.7,118.4Zm7-30.84c-2.46-.86-6.15-2-7.21-1.36,5.08,2.6,4.94,2.87,5.12,4.27s-.34,1.14-.87,1.28c-3.39-1.45-8.82-5.45-21.53,6,0,0,3.58-10,12-14.32s15.48,3,15.48,3S125.2,88.42,122.74,87.56Zm33.54-15.62H144.45a4.35,4.35,0,1,1-7.19,0H125.43V63.6h30.85Zm0-14.32H125.43V53.13A20.2,20.2,0,0,1,136,35.37l4.84-2.62,4.84,2.62a20.21,20.21,0,0,1,10.59,17.76Z"/></svg>