<?xml version="1.0" standalone="no"?>
<!DOCTYPE svg PUBLIC "-//W3C//DTD SVG 20010904//EN" "http://www.w3.org/TR/2001/REC-SVG-20010904/DTD/svg10.dtd">
<svg version="1.0" xmlns="http://www.w3.org/2000/svg" width="290.000000pt" height="66.000000pt" viewBox="0 0 290.000000 66.000000" preserveAspectRatio="xMidYMid meet">
	<g transform="translate(0.000000,66.000000) scale(0.100000,-0.100000)" fill="#ffff">
		<path d="M249 646 c-137 -37 -231 -149 -244 -292 -8 -77 1 -90 47 -71 43 18
61 43 126 172 61 122 97 160 152 160 56 0 84 -31 146 -160 29 -60 59 -117 66
-126 19 -24 80 -59 102 -59 17 0 18 7 14 73 -10 150 -95 259 -238 301 -63 19
-108 19 -171 2z" />
		<path d="M271 573 c-17 -16 -55 -78 -86 -140 -56 -113 -107 -173 -145 -173
-10 0 -21 -4 -24 -8 -6 -10 30 -92 42 -92 21 0 70 69 121 172 62 124 96 158
159 158 49 0 90 -47 136 -157 38 -91 81 -154 117 -174 17 -9 22 -5 39 33 25
55 25 68 0 68 -62 0 -118 62 -171 191 -59 143 -122 183 -188 122z" />
		<path d="M2266 532 c-3 -3 -6 -14 -6 -24 0 -13 7 -18 25 -18 18 0 25 5 25 19
0 18 -33 35 -44 23z" />
		<path d="M864 513 c-34 -7 -54 -36 -60 -89 -8 -68 9 -128 41 -142 14 -7 68
-12 120 -12 117 0 127 8 123 89 l-3 56 -80 0 c-72 0 -80 -2 -80 -19 0 -16 8
-19 55 -20 52 -1 55 -3 55 -26 0 -24 -3 -25 -65 -28 -105 -5 -110 -2 -110 66
0 32 5 63 12 70 8 8 48 12 116 12 102 0 103 0 100 23 -3 21 -7 22 -103 23 -55
1 -110 0 -121 -3z" />
		<path d="M278 451 c-28 -23 -94 -141 -79 -141 6 0 2 -9 -10 -21 -11 -11 -18
-26 -16 -33 3 -7 -4 -18 -15 -25 -11 -7 -17 -19 -14 -27 3 -8 1 -14 -5 -14 -6
0 -23 -13 -39 -29 l-29 -28 24 -23 24 -22 30 62 c17 34 28 67 25 71 -3 5 -1 9
4 9 6 0 13 7 16 16 3 8 2 12 -4 9 -6 -3 -10 -1 -10 4 0 6 6 11 13 11 18 1 50
49 43 66 -3 7 -2 14 2 15 4 0 16 2 27 4 103 18 98 19 137 -19 24 -23 38 -31
42 -23 3 6 4 3 1 -8 -2 -11 3 -31 11 -45 11 -18 14 -20 10 -5 -6 20 -6 20 9 1
17 -22 20 -40 5 -31 -14 9 -13 3 9 -45 10 -22 22 -41 27 -41 5 -1 11 -3 14 -6
3 -4 -1 -3 -7 1 -19 10 -16 -2 6 -30 17 -22 19 -22 33 -6 28 32 33 46 14 39
-9 -4 -15 -3 -12 2 6 9 -38 54 -46 46 -2 -3 -5 1 -5 8 0 6 -24 61 -52 121 -39
82 -55 106 -64 97 -14 -14 -27 -14 -27 0 0 5 4 8 9 4 22 -13 23 19 1 37 -29
23 -71 23 -102 -1z" />
		<path d="M1130 440 c0 -18 8 -20 92 -22 79 -3 93 -6 96 -20 3 -16 -6 -18 -85
-18 -97 0 -113 -7 -113 -51 0 -52 21 -60 139 -57 l106 3 3 69 c2 49 -1 75 -13
92 -15 23 -21 24 -120 24 -98 0 -105 -1 -105 -20z m190 -110 c0 -19 -5 -21
-72 -18 -60 2 -73 6 -76 21 -3 15 6 17 72 17 70 0 76 -2 76 -20z" />
		<path d="M1410 380 c0 -105 11 -113 141 -109 112 5 119 11 119 116 0 71 -1 73
-25 73 -23 0 -24 -3 -27 -67 l-3 -68 -77 -3 -78 -3 0 71 c0 68 -1 70 -25 70
-25 0 -25 -1 -25 -80z" />
		<path d="M1722 448 c-7 -7 -12 -27 -12 -45 0 -43 21 -53 115 -53 67 0 76 -2
73 -17 -3 -15 -17 -18 -96 -21 -84 -2 -92 -4 -92 -22 0 -19 7 -20 104 -20 116
0 136 9 136 60 0 48 -22 60 -111 60 -64 0 -79 3 -79 15 0 12 17 15 90 15 83 0
90 1 90 20 0 19 -7 20 -103 20 -67 0 -107 -4 -115 -12z" />
		<path d="M1990 441 c-32 -60 4 -91 106 -91 75 0 86 -4 77 -26 -4 -11 -28 -14
-100 -14 -85 0 -94 -2 -91 -17 3 -15 17 -18 101 -21 119 -3 137 4 137 58 0 51
-17 60 -114 60 -60 0 -76 3 -76 15 0 11 19 15 92 17 78 3 92 6 94 21 2 15 -9
17 -107 17 -97 0 -109 -2 -119 -19z" />
		<path d="M2260 365 c0 -95 0 -95 25 -95 25 0 25 0 25 95 0 95 0 95 -25 95 -25
0 -25 0 -25 -95z" />
		<path d="M2352 443 c3 -15 17 -18 96 -21 50 -1 92 -7 92 -12 0 -6 1 -13 3 -17
1 -5 -41 -10 -93 -13 l-95 -5 -3 -40 c-5 -57 11 -65 135 -65 l103 0 0 85 c0
104 -1 105 -140 105 -91 0 -101 -2 -98 -17z m194 -110 c-2 -15 -15 -19 -74
-21 -67 -3 -72 -1 -72 18 0 18 6 20 74 20 65 0 74 -2 72 -17z" />
		<path d="M2646 438 c-11 -15 -16 -46 -16 -95 0 -71 1 -73 25 -73 24 0 25 3 25
63 0 34 4 68 9 75 5 9 29 12 82 10 l74 -3 3 -72 c3 -70 4 -73 27 -73 24 0 25
2 25 73 0 111 -7 117 -135 117 -96 0 -105 -2 -119 -22z" />
		<path d="M284 331 c-23 -14 -48 -51 -93 -139 l-61 -121 28 -19 c82 -59 216
-67 315 -18 l54 26 -64 130 c-49 101 -69 133 -92 145 -39 19 -49 19 -87 -4z" />
		<path d="M1130 186 c0 -4 7 -14 15 -22 8 -9 15 -11 15 -6 0 5 -7 15 -15 22 -8
7 -15 9 -15 6z" />
		<path d="M1207 183 c-10 -9 -9 -33 1 -33 4 0 8 9 8 20 0 23 0 22 -9 13z" />
		<path d="M1352 170 c0 -14 2 -19 5 -12 2 6 2 18 0 25 -3 6 -5 1 -5 -13z" />
		<path d="M1377 170 c-3 -11 -1 -20 4 -20 5 0 9 9 9 20 0 11 -2 20 -4 20 -2 0
-6 -9 -9 -20z" />
		<path d="M1430 170 c0 -11 4 -20 8 -20 4 0 8 9 8 20 0 11 -4 20 -8 20 -4 0 -8
-9 -8 -20z" />
		<path d="M1500 170 c0 -11 4 -20 8 -20 4 0 8 9 8 20 0 11 -4 20 -8 20 -4 0 -8
-9 -8 -20z" />
		<path d="M1592 170 c0 -14 2 -19 5 -12 2 6 2 18 0 25 -3 6 -5 1 -5 -13z" />
		<path d="M1870 170 c0 -11 4 -20 8 -20 4 0 8 9 8 20 0 11 -4 20 -8 20 -4 0 -8
-9 -8 -20z" />
		<path d="M1941 168 c0 -13 3 -17 6 -10 4 10 8 10 19 1 8 -6 14 -7 14 -3 0 5
-9 15 -20 22 -18 11 -20 10 -19 -10z" />
		<path d="M2024 179 c-3 -6 -2 -15 3 -20 5 -5 9 -1 9 11 0 23 -2 24 -12 9z" />
		<path d="M2054 170 c0 -13 4 -16 10 -10 7 7 7 13 0 20 -6 6 -10 3 -10 -10z" />
		<path d="M2110 170 c0 -11 4 -20 9 -20 5 0 7 9 4 20 -3 11 -7 20 -9 20 -2 0
-4 -9 -4 -20z" />
		<path d="M2174 179 c-3 -6 -2 -15 3 -20 5 -5 9 -1 9 11 0 23 -2 24 -12 9z" />
		<path d="M2204 170 c0 -13 4 -16 10 -10 7 7 7 13 0 20 -6 6 -10 3 -10 -10z" />
		<path d="M2260 170 c0 -11 2 -20 4 -20 2 0 6 9 9 20 3 11 1 20 -4 20 -5 0 -9
-9 -9 -20z" />
		<path d="M2470 170 c-7 -13 -7 -20 0 -20 5 0 10 8 11 18 0 14 2 14 9 -3 7 -16
9 -17 9 -3 1 26 -17 31 -29 8z" />
	</g>
</svg>
